<svg width="30" height="31" viewBox="0 0 30 31" fill="none" xmlns="http://www.w3.org/2000/svg">
<path d="M28.25 30.5C24.6667 30.5 21.1736 29.7014 17.7708 28.1042C14.3681 26.5069 11.3542 24.3958 8.72917 21.7708C6.10417 19.1458 3.99306 16.1319 2.39583 12.7292C0.798611 9.32639 0 5.83333 0 2.25C0 1.75 0.166667 1.33333 0.5 1C0.833333 0.666667 1.25 0.5 1.75 0.5H8.5C8.88889 0.5 9.23611 0.625 9.54167 0.875C9.84722 1.125 10.0278 1.44444 10.0833 1.83333L11.1667 7.66667C11.2222 8.05556 11.2153 8.40972 11.1458 8.72917C11.0764 9.04861 10.9167 9.33333 10.6667 9.58333L6.66667 13.6667C7.83333 15.6667 9.29167 17.5417 11.0417 19.2917C12.7917 21.0417 14.7222 22.5556 16.8333 23.8333L20.75 19.9167C21 19.6667 21.3264 19.4792 21.7292 19.3542C22.1319 19.2292 22.5278 19.1944 22.9167 19.25L28.6667 20.4167C29.0556 20.5 29.375 20.6875 29.625 20.9792C29.875 21.2708 30 21.6111 30 22V28.75C30 29.25 29.8333 29.6667 29.5 30C29.1667 30.3333 28.75 30.5 28.25 30.5Z" fill="#FFC400"/>
</svg>
