<svg width="40" height="41" viewBox="0 0 40 41" fill="none" xmlns="http://www.w3.org/2000/svg">
<g clip-path="url(#clip0_27_958)">
<path d="M20 4.1046C25.3434 4.1046 25.9706 4.12842 28.0826 4.2237C30.0358 4.31104 31.0917 4.63656 31.7984 4.91445C32.7352 5.27967 33.4022 5.70842 34.1009 6.40711C34.7995 7.1058 35.2362 7.77273 35.5935 8.70961C35.8635 9.41624 36.1969 10.4722 36.2843 12.4254C36.3795 14.5373 36.4034 15.1645 36.4034 20.5079C36.4034 25.8513 36.3795 26.4786 36.2843 28.5905C36.1969 30.5437 35.8714 31.5996 35.5935 32.3063C35.2283 33.2432 34.7995 33.9101 34.1009 34.6088C33.4022 35.3075 32.7352 35.7441 31.7984 36.1014C31.0917 36.3714 30.0358 36.7048 28.0826 36.7922C25.9706 36.8875 25.3434 36.9113 20 36.9113C14.6566 36.9113 14.0294 36.8875 11.9174 36.7922C9.96428 36.7048 8.9083 36.3793 8.20167 36.1014C7.26479 35.7362 6.59786 35.3075 5.89917 34.6088C5.20048 33.9101 4.7638 33.2432 4.40651 32.3063C4.13657 31.5996 3.8031 30.5437 3.71576 28.5905C3.62049 26.4786 3.59667 25.8513 3.59667 20.5079C3.59667 15.1645 3.62049 14.5373 3.71576 12.4254C3.8031 10.4722 4.12863 9.41624 4.40651 8.70961C4.77174 7.77273 5.20048 7.1058 5.89917 6.40711C6.59786 5.70842 7.26479 5.27173 8.20167 4.91445C8.9083 4.6445 9.96428 4.31104 11.9174 4.2237C14.0294 4.12048 14.6646 4.1046 20 4.1046ZM20 0.5C14.5693 0.5 13.8865 0.523819 11.7507 0.619095C9.62287 0.714371 8.16992 1.05578 6.89957 1.54803C5.58158 2.05617 4.47003 2.74692 3.35848 3.85848C2.24692 4.97003 1.56411 6.08952 1.04804 7.39956C0.555776 8.66991 0.214371 10.1229 0.119095 12.2586C0.023819 14.3865 0 15.0693 0 20.5C0 25.9307 0.023819 26.6135 0.119095 28.7493C0.214371 30.8771 0.555776 32.3301 1.04804 33.6084C1.55617 34.9264 2.24692 36.0379 3.35848 37.1495C4.47003 38.261 5.58952 38.9438 6.89957 39.4599C8.16992 39.9522 9.62287 40.2936 11.7586 40.3888C13.8944 40.4841 14.5693 40.5079 20.008 40.5079C25.4466 40.5079 26.1215 40.4841 28.2573 40.3888C30.3851 40.2936 31.8381 39.9522 33.1163 39.4599C34.4343 38.9518 35.5459 38.261 36.6574 37.1495C37.769 36.0379 38.4518 34.9184 38.9679 33.6084C39.4601 32.338 39.8015 30.8851 39.8968 28.7493C39.9921 26.6135 40.0159 25.9387 40.0159 20.5C40.0159 15.0613 39.9921 14.3865 39.8968 12.2507C39.8015 10.1229 39.4601 8.66991 38.9679 7.39162C38.4597 6.07364 37.769 4.96209 36.6574 3.85054C35.5459 2.73898 34.4264 2.05617 33.1163 1.5401C31.846 1.04784 30.393 0.706431 28.2573 0.611155C26.1136 0.523819 25.4307 0.5 20 0.5Z" fill="#FFC400"/>
<path d="M20 4.1046C25.3434 4.1046 25.9706 4.12842 28.0826 4.2237C30.0358 4.31104 31.0917 4.63656 31.7984 4.91445C32.7352 5.27967 33.4022 5.70842 34.1009 6.40711C34.7995 7.1058 35.2362 7.77273 35.5935 8.70961C35.8635 9.41624 36.1969 10.4722 36.2843 12.4254C36.3795 14.5373 36.4034 15.1645 36.4034 20.5079C36.4034 25.8513 36.3795 26.4786 36.2843 28.5905C36.1969 30.5437 35.8714 31.5996 35.5935 32.3063C35.2283 33.2432 34.7995 33.9101 34.1009 34.6088C33.4022 35.3075 32.7352 35.7441 31.7984 36.1014C31.0917 36.3714 30.0358 36.7048 28.0826 36.7922C25.9706 36.8875 25.3434 36.9113 20 36.9113C14.6566 36.9113 14.0294 36.8875 11.9174 36.7922C9.96428 36.7048 8.9083 36.3793 8.20167 36.1014C7.26479 35.7362 6.59786 35.3075 5.89917 34.6088C5.20048 33.9101 4.7638 33.2432 4.40651 32.3063C4.13657 31.5996 3.8031 30.5437 3.71576 28.5905C3.62049 26.4786 3.59667 25.8513 3.59667 20.5079C3.59667 15.1645 3.62049 14.5373 3.71576 12.4254C3.8031 10.4722 4.12863 9.41624 4.40651 8.70961C4.77174 7.77273 5.20048 7.1058 5.89917 6.40711C6.59786 5.70842 7.26479 5.27173 8.20167 4.91445C8.9083 4.6445 9.96428 4.31104 11.9174 4.2237C14.0294 4.12048 14.6646 4.1046 20 4.1046Z" fill="#FFC400"/>
<path d="M20 10.2339C14.3311 10.2339 9.72607 14.8309 9.72607 20.5078C9.72607 26.1847 14.3231 30.7817 20 30.7817C25.6768 30.7817 30.2739 26.1847 30.2739 20.5078C30.2739 14.8309 25.6768 10.2339 20 10.2339ZM20 27.1692C16.316 27.1692 13.3307 24.1839 13.3307 20.4999C13.3307 16.8159 16.316 13.8306 20 13.8306C23.684 13.8306 26.6693 16.8159 26.6693 20.4999C26.6693 24.1839 23.684 27.1692 20 27.1692Z" fill="#181A20"/>
<path d="M30.6788 12.2189C32.0031 12.2189 33.0766 11.1454 33.0766 9.82112C33.0766 8.49686 32.0031 7.42334 30.6788 7.42334C29.3546 7.42334 28.2811 8.49686 28.2811 9.82112C28.2811 11.1454 29.3546 12.2189 30.6788 12.2189Z" fill="#181A20"/>
</g>
<defs>
<clipPath id="clip0_27_958">
<rect width="40" height="40" fill="white" transform="translate(0 0.5)"/>
</clipPath>
</defs>
</svg>
