<svg width="40" height="41" viewBox="0 0 40 41" fill="none" xmlns="http://www.w3.org/2000/svg">
<mask id="mask0_27_890" style="mask-type:alpha" maskUnits="userSpaceOnUse" x="0" y="0" width="40" height="41">
<rect y="0.5" width="40" height="40" fill="#D9D9D9"/>
</mask>
<g mask="url(#mask0_27_890)">
<path d="M6.66666 33.8337C5.74999 33.8337 4.96527 33.5073 4.31249 32.8545C3.65972 32.2017 3.33333 31.417 3.33333 30.5003V10.5003C3.33333 9.58366 3.65972 8.79894 4.31249 8.14616C4.96527 7.49338 5.74999 7.16699 6.66666 7.16699H33.3333C34.25 7.16699 35.0347 7.49338 35.6875 8.14616C36.3403 8.79894 36.6667 9.58366 36.6667 10.5003V30.5003C36.6667 31.417 36.3403 32.2017 35.6875 32.8545C35.0347 33.5073 34.25 33.8337 33.3333 33.8337H6.66666ZM20 22.167L33.3333 13.8337V10.5003L20 18.8337L6.66666 10.5003V13.8337L20 22.167Z" fill="#FFC400"/>
</g>
</svg>
