<svg width="40" height="41" viewBox="0 0 40 41" fill="none" xmlns="http://www.w3.org/2000/svg">
<path d="M39.1761 10.8822C38.7148 9.16885 37.3639 7.81795 35.6506 7.35667C32.5205 6.5 19.9999 6.5 19.9999 6.5C19.9999 6.5 7.47937 6.5 4.34924 7.32372C2.66885 7.785 1.285 9.16885 0.82372 10.8822C0 14.0123 0 20.5032 0 20.5032C0 20.5032 0 27.0271 0.82372 30.1243C1.285 31.8376 2.6359 33.1885 4.34924 33.6498C7.51232 34.5065 19.9999 34.5065 19.9999 34.5065C19.9999 34.5065 32.5205 34.5065 35.6506 33.6827C37.3639 33.2215 38.7148 31.8706 39.1761 30.1572C39.9998 27.0271 39.9998 20.5362 39.9998 20.5362C39.9998 20.5362 40.0328 14.0123 39.1761 10.8822Z" fill="#FFC400"/>
<path d="M16.0131 26.4997L26.425 20.503L16.0131 14.5063V26.4997Z" fill="#181A20"/>
</svg>
